#!OML:ASF H:\Dans Jumps\Project 1\Capture day 1\Session 1\subject.ASF
:FULLY-SPECIFIED
:DEGREES
207
root 0.0917566 17.5797 -14.2136 7.58617 0.350304 -1.6887
lowerback -2.29965 -0.488651 0.644325
upperback 3.14221 -0.760428 1.93011
thorax 4.54938 -0.392112 1.58516
lowerneck -12.7821 0.224344 -2.58441
upperneck 30.9222 0.538682 1.45249
head 12.3029 0.123718 1.0766
rclavicle 6.95746e-016 -1.07344e-014
rhumerus -24.2957 -21.4383 -76.9812
rradius 23.1482
rwrist 33.6539
rhand -20.2041 -26.9327
rfingers 7.12502
rthumb 6.14275 -56.8237
lclavicle 6.95746e-016 -1.07344e-014
lhumerus -19.2052 7.99138 84.8498
lradius 15.5132
lwrist -0.901995
lhand -25.3041 -1.60794
lfingers 7.12502
lthumb 1.2179 28.3683
rfemur -14.7596 -1.30924 19.183
rtibia 20.3345
rfoot -12.6757 -2.01616
rtoes 8.34851
lfemur -13.9034 5.18005 -16.5528
ltibia 19.2043
lfoot -10.0939 5.85507
ltoes -6.49571
208
root 0.0923094 17.5788 -14.2135 7.57827 0.338476 -1.69456
lowerback -2.28144 -0.486062 0.646162
upperback 3.14256 -0.756606 1.92742
thorax 4.53922 -0.390096 1.5817
lowerneck -12.7979 0.223402 -2.57204
upperneck 30.9047 0.534953 1.45089
head 12.2992 0.123428 1.0732
rclavicle 1.13307e-014 -6.36111e-015
rhumerus -24.3527 -21.4553 -76.9667
rradius 23.1392
rwrist 33.6754
rhand -20.1984 -26.9236
rfingers 7.12502
rthumb 6.14832 -56.8144
lclavicle 1.13307e-014 -6.36111e-015
lhumerus -19.2512 8.04819 84.8137
lradius 15.4722
lwrist -0.970958
lhand -25.2824 -1.6138
lfingers 7.12502
lthumb 1.23885 28.3623
rfemur -14.7715 -1.31576 19.1876
rtibia 20.3693
rfoot -12.6898 -2.00213
rtoes 8.31423
lfemur -13.915 5.17736 -16.548
ltibia 19.2512
lfoot -10.1164 5.87235
ltoes -6.50096
209
root 0.0929884 17.5776 -14.2135 7.57249 0.327526 -1.70077
lowerback -2.26016 -0.481902 0.652228
upperback 3.14276 -0.750802 1.92451
thorax 4.52706 -0.386943 1.57578
lowerneck -12.8163 0.220697 -2.55912
upperneck 30.8879 0.530281 1.44416
head 12.2965 0.122138 1.06766
rclavicle 3.08116e-015 -1.27222e-014
rhumerus -24.4089 -21.4788 -76.9497
rradius 23.1349
rwrist 33.6977
rhand -20.1844 -26.916
rfingers 7.12502
rthumb 6.1618 -56.8063
lclavicle 3.08116e-015 -1.27222e-014
lhumerus -19.2954 8.0867 84.786
lradius 15.4384
lwrist -1.02221
lhand -25.2588 -1.57389
lfingers 7.12502
lthumb 1.26158 28.4021
rfemur -14.7858 -1.31565 19.1916
rtibia 20.4055
rfoot -12.7043 -1.99411
rtoes 8.28108
lfemur -13.9318 5.17892 -16.544
ltibia 19.3013
lfoot -10.1396 5.88669
ltoes -6.51848
210
root 0.0937323 17.5764 -14.2137 7.56662 0.316451 -1.70693
lowerback -2.23751 -0.477971 0.658985
upperback 3.14399 -0.745297 1.92089
thorax 4.51517 -0.383907 1.56872
lowerneck -12.8248 0.218876 -2.54718
upperneck 30.8609 0.526374 1.43893
head 12.2874 0.121341 1.06279
rclavicle 4.96962e-016 -2.5842e-014
rhumerus -24.4599 -21.5032 -76.9358
rradius 23.1261
rwrist 33.7193
rhand -20.1638 -26.9181
rfingers 7.12502
rthumb 6.18169 -56.8079
lclavicle 4.96962e-016 -2.5842e-014
lhumerus -19.3375 8.12178 84.7596
lradius 15.4102
lwrist -1.06795
lhand -25.224 -1.50461
lfingers 7.12502
lthumb 1.29524 28.4712
rfemur -14.8018 -1.3138 19.1952
rtibia 20.444
rfoot -12.7193 -1.98822
rtoes 8.23779
lfemur -13.9507 5.18208 -16.5405
ltibia 19.354
lfoot -10.1643 5.9011
ltoes -6.53949
211
root 0.0945833 17.5752 -14.2139 7.5598 0.308934 -1.71038
lowerback -2.21223 -0.476229 0.664387
upperback 3.14656 -0.742617 1.91687
thorax 4.50327 -0.382317 1.56185
lowerneck -12.8323 0.216924 -2.53358
upperneck 30.829 0.523442 1.42851
head 12.2763 0.120539 1.05574
rclavicle -6.95746e-015 9.54166e-015
rhumerus -24.5075 -21.5158 -76.926
rradius 23.1186
rwrist 33.7281
rhand -20.1422 -26.9211
rfingers 7.12502
rthumb 6.20256 -56.8103
lclavicle -6.95746e-015 9.54166e-015
lhumerus -19.381 8.16173 84.734
lradius 15.3872
lwrist -1.11266
lhand -25.1938 -1.44001
lfingers 7.12502
lthumb 1.32436 28.5356
rfemur -14.8179 -1.31497 19.1955
rtibia 20.4855
rfoot -12.7364 -1.98229
rtoes 8.19072
lfemur -13.9714 5.18547 -16.5404
ltibia 19.4095
lfoot -10.1897 5.913
ltoes -6.56261
212
root 0.0954381 17.5739 -14.2144 7.55146 0.301884 -1.7138
lowerback -2.18155 -0.476004 0.668228
upperback 3.14854 -0.741814 1.91373
thorax 4.48777 -0.381727 1.5567
lowerneck -12.8371 0.214951 -2.52141
upperneck 30.794 0.521104 1.41697
head 12.2632 0.1197 1.04855
rclavicle -5.06901e-015 -6.36111e-015
rhumerus -24.554 -21.5157 -76.9188
rradius 23.109
rwrist 33.7284
rhand -20.1214 -26.9197
rfingers 7.12502
rthumb 6.2226 -56.8083
lclavicle -5.06901e-015 -6.36111e-015
lhumerus -19.4307 8.20383 84.709
lradius 15.3708
lwrist -1.14929
lhand -25.1715 -1.40371
lfingers 7.12502
lthumb 1.34596 28.5718
rfemur -14.8339 -1.31308 19.1953
rtibia 20.529
rfoot -12.754 -1.97735
rtoes 8.15924
lfemur -13.9938 5.18757 -16.5404
ltibia 19.4692
lfoot -10.2149 5.92642
ltoes -6.58074
213
root 0.0963122 17.5725 -14.2152 7.5418 0.296493 -1.71782
lowerback -2.14705 -0.477884 0.671694
upperback 3.15138 -0.743775 1.91119
thorax 4.47106 -0.382537 1.55222
lowerneck -12.8385 0.214027 -2.51193
upperneck 30.7539 0.519985 1.40822
head 12.2474 0.119474 1.04298
rclavicle 6.65929e-015 -4.37326e-015
rhumerus -24.596 -21.4996 -76.9171
rradius 23.0971
rwrist 33.7195
rhand -20.1118 -26.9109
rfingers 7.12502
rthumb 6.23187 -56.7992
lclavicle 6.65929e-015 -4.37326e-015
lhumerus -19.4844 8.24185 84.6856
lradius 15.3665
lwrist -1.16978
lhand -25.1494 -1.36016
lfingers 7.12502
lthumb 1.36726 28.6152
rfemur -14.8506 -1.31058 19.1956
rtibia 20.5755
rfoot -12.7717 -1.97223
rtoes 8.13905
lfemur -14.0194 5.18713 -16.5394
ltibia 19.5356
lfoot -10.2412 5.94145
ltoes -6.59256
214
root 0.0971909 17.571 -14.2163 7.53199 0.291919 -1.72519
lowerback -2.10639 -0.480669 0.678207
upperback 3.15332 -0.746985 1.90991
thorax 4.44992 -0.383887 1.54732
lowerneck -12.8356 0.213251 -2.50698
upperneck 30.7083 0.518866 1.40349
head 12.2284 0.119269 1.03964
rclavicle -2.28602e-015 -1.23246e-014
rhumerus -24.6364 -21.4698 -76.9186
rradius 23.0855
rwrist 33.7069
rhand -20.1046 -26.9035
rfingers 7.12502
rthumb 6.23884 -56.7916
lclavicle -2.28602e-015 -1.23246e-014
lhumerus -19.5442 8.26923 84.6655
lradius 15.3761
lwrist -1.16526
lhand -25.121 -1.2901
lfingers 7.12502
lthumb 1.3947 28.6851
rfemur -14.8702 -1.30562 19.1996
rtibia 20.6255
rfoot -12.7895 -1.96991
rtoes 8.11767
lfemur -14.0511 5.18507 -16.5344
ltibia 19.6118
lfoot -10.2713 5.95721
ltoes -6.59475
215
root 0.0981039 17.5693 -14.2177 7.52285 0.285653 -1.73484
lowerback -2.06192 -0.482595 0.687866
upperback 3.15698 -0.74914 1.9087
thorax 4.42835 -0.384613 1.54081
lowerneck -12.8379 0.212474 -2.50179
upperneck 30.6612 0.518032 1.39817
head 12.2099 0.119161 1.0361
rclavicle 8.64713e-015 -2.14687e-014
rhumerus -24.6706 -21.4335 -76.9242
rradius 23.075
rwrist 33.6914
rhand -20.105 -26.8897
rfingers 7.12502
rthumb 6.23845 -56.7778
lclavicle 8.64713e-015 -2.14687e-014
lhumerus -19.6027 8.27824 84.6507
lradius 15.3967
lwrist -1.12796
lhand -25.0951 -1.22021
lfingers 7.12502
lthumb 1.4197 28.7548
rfemur -14.8959 -1.29571 19.2059
rtibia 20.6817
rfoot -12.8068 -1.97172
rtoes 8.09145
lfemur -14.0911 5.18418 -16.5273
ltibia 19.7006
lfoot -10.3051 5.97642
ltoes -6.60355
216
root 0.0990669 17.5674 -14.2195 7.51607 0.279045 -1.74639
lowerback -2.01436 -0.484329 0.700022
upperback 3.1621 -0.751113 1.90771
thorax 4.40651 -0.385175 1.53316
lowerneck -12.8447 0.211267 -2.49434
upperneck 30.6106 0.517333 1.38895
head 12.191 0.118908 1.0307
rclavicle 3.37934e-015 -3.18055e-015
rhumerus -24.6963 -21.3884 -76.9348
rradius 23.0641
rwrist 33.6744
rhand -20.1139 -26.8677
rfingers 7.12502
rthumb 6.22985 -56.7561
lclavicle 3.37934e-015 -3.18055e-015
lhumerus -19.658 8.27025 84.6411
lradius 15.431
lwrist -1.05293
lhand -25.0545 -1.10887
lfingers 7.12502
lthumb 1.45894 28.8659
rfemur -14.9311 -1.28494 19.2148
rtibia 20.7461
rfoot -12.8241 -1.97727
rtoes 8.04811
lfemur -14.1426 5.1842 -16.5186
ltibia 19.8039
lfoot -10.3444 5.99669
ltoes -6.60876
217
root 0.10016 17.5652 -14.2219 7.51471 0.269626 -1.7579
lowerback -1.96344 -0.481722 0.716821
upperback 3.16765 -0.747351 1.9053
thorax 4.383 -0.382706 1.5218
lowerneck -12.8588 0.208459 -2.4855
upperneck 30.5597 0.514983 1.37738
head 12.1735 0.117817 1.02398
rclavicle -1.00386e-014 -4.37326e-015
rhumerus -24.7196 -21.3494 -76.9444
rradius 23.0631
rwrist 33.6625
rhand -20.1214 -26.8433
rfingers 7.12502
rthumb 6.22259 -56.7319
lclavicle -1.00386e-014 -4.37326e-015
lhumerus -19.7111 8.22814 84.6419
lradius 15.4806
lwrist -0.93483
lhand -25.0109 -0.962239
lfingers 7.12502
lthumb 1.501 29.0122
rfemur -14.9811 -1.26896 19.2234
rtibia 20.8225
rfoot -12.8426 -1.98919
rtoes 7.98999
lfemur -14.2099 5.18659 -16.5113
ltibia 19.9235
lfoot -10.3886 6.01971
ltoes -6.61659
218
root 0.10131 17.5627 -14.2248 7.51816 0.256646 -1.76984
lowerback -1.90962 -0.477551 0.73385
upperback 3.17385 -0.741463 1.90326
thorax 4.35848 -0.379184 1.51083
lowerneck -12.869 0.206839 -2.47938
upperneck 30.498 0.514144 1.36845
head 12.1509 0.117513 1.01882
rclavicle 1.2921e-015 -2.78299e-015
rhumerus -24.7377 -21.2997 -76.958
rradius 23.0685
rwrist 33.6463
rhand -20.1311 -26.8229
rfingers 7.12502
rthumb 6.21329 -56.7118
lclavicle 1.2921e-015 -2.78299e-015
lhumerus -19.7643 8.16883 84.6488
lradius 15.5435
lwrist -0.790669
lhand -24.9697 -0.803949
lfingers 7.12502
lthumb 1.54083 29.1702
rfemur -15.0473 -1.25116 19.2331
rtibia 20.9129
rfoot -12.8638 -2.00494
rtoes 7.90783
lfemur -14.2933 5.19114 -16.5047
ltibia 20.0609
lfoot -10.438 6.04777
ltoes -6.63053
